<svg id="图层_1" data-name="图层 1" xmlns="http://www.w3.org/2000/svg" viewBox="0 0 64 64"><defs><style>.cls-1{fill:#fff;}.cls-2{fill:#262626;}</style></defs><rect class="cls-1" x="4" y="24" width="4" height="4"/><rect class="cls-1" x="4" y="48" width="4" height="4"/><rect class="cls-1" x="4" y="52" width="4" height="4"/><rect class="cls-1" x="8" y="24" width="4" height="4"/><rect class="cls-1" x="8" y="28" width="4" height="4"/><rect class="cls-1" x="8" y="32" width="4" height="4"/><rect class="cls-1" x="8" y="36" width="4" height="4"/><rect class="cls-1" x="8" y="40" width="4" height="4"/><rect class="cls-1" x="8" y="44" width="4" height="4"/><rect class="cls-1" x="8" y="48" width="4" height="4"/><rect class="cls-1" x="8" y="52" width="4" height="4"/><rect class="cls-1" x="8" y="56" width="4" height="4"/><rect class="cls-1" x="12" y="24" width="4" height="4"/><rect class="cls-1" x="12" y="28" width="4" height="4"/><rect class="cls-1" x="12" y="32" width="4" height="4"/><rect class="cls-1" x="12" y="36" width="4" height="4"/><rect class="cls-1" x="12" y="40" width="4" height="4"/><rect class="cls-1" x="12" y="44" width="4" height="4"/><rect class="cls-1" x="12" y="48" width="4" height="4"/><rect class="cls-1" x="12" y="52" width="4" height="4"/><rect class="cls-1" x="12" y="56" width="4" height="4"/><rect class="cls-1" x="16" y="24" width="4" height="4"/><rect class="cls-1" x="16" y="28" width="4" height="4"/><rect class="cls-1" x="16" y="32" width="4" height="4"/><rect class="cls-1" x="16" y="36" width="4" height="4"/><rect class="cls-1" x="16" y="40" width="4" height="4"/><rect class="cls-1" x="16" y="44" width="4" height="4"/><rect class="cls-1" x="16" y="48" width="4" height="4"/><rect class="cls-1" x="16" y="52" width="4" height="4"/><rect class="cls-1" x="16" y="56" width="4" height="4"/><rect class="cls-1" x="20" y="20" width="4" height="4"/><rect class="cls-1" x="20" y="24" width="4" height="4"/><rect class="cls-1" x="20" y="28" width="4" height="4"/><rect class="cls-1" x="20" y="32" width="4" height="4"/><rect class="cls-1" x="20" y="36" width="4" height="4"/><rect class="cls-1" x="20" y="40" width="4" height="4"/><rect class="cls-1" x="20" y="44" width="4" height="4"/><rect class="cls-1" x="20" y="48" width="4" height="4"/><rect class="cls-1" x="20" y="52" width="4" height="4"/><rect class="cls-1" x="24" y="16" width="4" height="4"/><rect class="cls-1" x="24" y="20" width="4" height="4"/><rect class="cls-1" x="24" y="24" width="4" height="4"/><rect class="cls-1" x="24" y="28" width="4" height="4"/><rect class="cls-1" x="24" y="32" width="4" height="4"/><rect class="cls-1" x="24" y="36" width="4" height="4"/><rect class="cls-1" x="24" y="40" width="4" height="4"/><rect class="cls-1" x="24" y="44" width="4" height="4"/><rect class="cls-1" x="24" y="48" width="4" height="4"/><rect class="cls-1" x="24" y="52" width="4" height="4"/><rect class="cls-1" x="28" y="12" width="4" height="4"/><rect class="cls-1" x="28" y="16" width="4" height="4"/><rect class="cls-1" x="28" y="20" width="4" height="4"/><rect class="cls-1" x="28" y="24" width="4" height="4"/><rect class="cls-1" x="28" y="28" width="4" height="4"/><rect class="cls-1" x="28" y="32" width="4" height="4"/><rect class="cls-1" x="28" y="36" width="4" height="4"/><rect class="cls-1" x="28" y="40" width="4" height="4"/><rect class="cls-1" x="28" y="44" width="4" height="4"/><rect class="cls-1" x="28" y="48" width="4" height="4"/><rect class="cls-1" x="28" y="52" width="4" height="4"/><rect class="cls-1" x="32" y="8" width="4" height="4"/><rect class="cls-1" x="32" y="12" width="4" height="4"/><rect class="cls-1" x="32" y="16" width="4" height="4"/><rect class="cls-1" x="32" y="20" width="4" height="4"/><rect class="cls-1" x="32" y="24" width="4" height="4"/><rect class="cls-1" x="32" y="28" width="4" height="4"/><rect class="cls-1" x="32" y="32" width="4" height="4"/><rect class="cls-1" x="32" y="36" width="4" height="4"/><rect class="cls-1" x="32" y="40" width="4" height="4"/><rect class="cls-1" x="32" y="44" width="4" height="4"/><rect class="cls-1" x="32" y="48" width="4" height="4"/><rect class="cls-1" x="32" y="52" width="4" height="4"/><rect class="cls-1" x="36" y="4" width="4" height="4"/><rect class="cls-1" x="36" y="8" width="4" height="4"/><rect class="cls-1" x="36" y="12" width="4" height="4"/><rect class="cls-1" x="36" y="16" width="4" height="4"/><rect class="cls-1" x="36" y="20" width="4" height="4"/><rect class="cls-1" x="36" y="24" width="4" height="4"/><rect class="cls-1" x="36" y="28" width="4" height="4"/><rect class="cls-1" x="36" y="32" width="4" height="4"/><rect class="cls-1" x="36" y="36" width="4" height="4"/><rect class="cls-1" x="36" y="40" width="4" height="4"/><rect class="cls-1" x="36" y="44" width="4" height="4"/><rect class="cls-1" x="36" y="48" width="4" height="4"/><rect class="cls-1" x="36" y="52" width="4" height="4"/><rect class="cls-1" x="36" y="56" width="4" height="4"/><rect class="cls-1" x="40" width="4" height="4"/><rect class="cls-1" x="40" y="4" width="4" height="4"/><rect class="cls-1" x="40" y="8" width="4" height="4"/><rect class="cls-1" x="40" y="12" width="4" height="4"/><rect class="cls-1" x="40" y="16" width="4" height="4"/><rect class="cls-1" x="40" y="20" width="4" height="4"/><rect class="cls-1" x="40" y="24" width="4" height="4"/><rect class="cls-1" x="40" y="28" width="4" height="4"/><rect class="cls-1" x="40" y="32" width="4" height="4"/><rect class="cls-1" x="40" y="36" width="4" height="4"/><rect class="cls-1" x="40" y="40" width="4" height="4"/><rect class="cls-1" x="44" width="4" height="4"/><rect class="cls-1" x="44" y="4" width="4" height="4"/><rect class="cls-1" x="44" y="8" width="4" height="4"/><rect class="cls-1" x="44" y="12" width="4" height="4"/><rect class="cls-1" x="44" y="16" width="4" height="4"/><rect class="cls-1" x="44" y="20" width="4" height="4"/><rect class="cls-1" x="44" y="24" width="4" height="4"/><rect class="cls-1" x="44" y="28" width="4" height="4"/><rect class="cls-1" x="44" y="32" width="4" height="4"/><rect class="cls-1" x="44" y="36" width="4" height="4"/><rect class="cls-1" x="48" width="4" height="4"/><rect class="cls-1" x="48" y="4" width="4" height="4"/><rect class="cls-1" x="48" y="8" width="4" height="4"/><rect class="cls-1" x="48" y="12" width="4" height="4"/><rect class="cls-1" x="48" y="16" width="4" height="4"/><rect class="cls-1" x="48" y="20" width="4" height="4"/><rect class="cls-1" x="48" y="24" width="4" height="4"/><rect class="cls-1" x="48" y="28" width="4" height="4"/><rect class="cls-1" x="48" y="32" width="4" height="4"/><rect class="cls-1" x="52" y="4" width="4" height="4"/><rect class="cls-1" x="52" y="8" width="4" height="4"/><rect class="cls-1" x="52" y="12" width="4" height="4"/><rect class="cls-1" x="52" y="16" width="4" height="4"/><rect class="cls-1" x="52" y="20" width="4" height="4"/><rect class="cls-1" x="52" y="24" width="4" height="4"/><rect class="cls-1" x="52" y="28" width="4" height="4"/><rect class="cls-1" x="56" y="8" width="4" height="4"/><rect class="cls-1" x="56" y="12" width="4" height="4"/><rect class="cls-1" x="56" y="16" width="4" height="4"/><rect class="cls-1" x="56" y="20" width="4" height="4"/><rect class="cls-1" x="56" y="24" width="4" height="4"/><rect class="cls-1" x="60" y="12" width="4" height="4"/><rect class="cls-1" x="60" y="16" width="4" height="4"/><rect class="cls-1" x="60" y="20" width="4" height="4"/><rect class="cls-2" x="4" y="24" width="4" height="4"/><rect class="cls-2" x="8" y="24" width="4" height="4"/><rect class="cls-2" x="12" y="24" width="4" height="4"/><rect class="cls-2" x="8" y="28" width="4" height="4"/><rect class="cls-2" x="12" y="28" width="4" height="4"/><rect class="cls-2" x="12" y="32" width="4" height="4"/><rect class="cls-2" x="16" y="32" width="4" height="4"/><rect class="cls-2" x="16" y="36" width="4" height="4"/><rect class="cls-2" x="20" y="36" width="4" height="4"/><rect class="cls-2" x="20" y="40" width="4" height="4"/><rect class="cls-2" x="24" y="40" width="4" height="4"/><rect class="cls-2" x="24" y="44" width="4" height="4"/><rect class="cls-2" x="28" y="44" width="4" height="4"/><rect class="cls-2" x="28" y="48" width="4" height="4"/><rect class="cls-2" x="32" y="48" width="4" height="4"/><rect class="cls-2" x="32" y="52" width="4" height="4"/><rect class="cls-2" x="16" y="24" width="4" height="4"/><rect class="cls-2" x="20" y="24" width="4" height="4"/><rect class="cls-2" x="20" y="20" width="4" height="4"/><rect class="cls-2" x="24" y="20" width="4" height="4"/><rect class="cls-2" x="24" y="16" width="4" height="4"/><rect class="cls-2" x="28" y="16" width="4" height="4"/><rect class="cls-2" x="28" y="12" width="4" height="4"/><rect class="cls-2" x="32" y="12" width="4" height="4"/><rect class="cls-2" x="32" y="8" width="4" height="4"/><rect class="cls-2" x="36" y="8" width="4" height="4"/><rect class="cls-2" x="40" y="16" width="4" height="4"/><rect class="cls-2" x="44" y="16" width="4" height="4"/><rect class="cls-2" x="40" y="20" width="4" height="4"/><rect class="cls-2" x="28" y="28" width="4" height="4"/><rect class="cls-2" x="32" y="32" width="4" height="4"/><rect class="cls-2" x="44" y="12" width="4" height="4"/><rect class="cls-2" x="48" y="16" width="4" height="4"/><rect class="cls-2" x="48" y="12" width="4" height="4"/><rect class="cls-2" x="12" y="40" width="4" height="4"/><rect class="cls-2" x="8" y="36" width="4" height="4"/><rect class="cls-2" x="8" y="44" width="4" height="4"/><rect class="cls-2" x="4" y="48" width="4" height="4"/><rect class="cls-2" x="8" y="52" width="4" height="4"/><rect class="cls-2" y="60" width="4" height="4"/><rect class="cls-2" x="4" y="56" width="4" height="4"/><rect class="cls-2" x="12" y="56" width="4" height="4"/><rect class="cls-2" x="16" y="52" width="4" height="4"/><rect class="cls-2" x="24" y="52" width="4" height="4"/><rect class="cls-2" x="12" y="48" width="4" height="4"/><rect class="cls-2" x="16" y="44" width="4" height="4"/><rect class="cls-2" x="20" y="48" width="4" height="4"/><rect class="cls-2" x="44" y="20" width="4" height="4"/><rect class="cls-2" x="36" y="4" width="4" height="4"/><rect class="cls-2" x="40" y="4" width="4" height="4"/><rect class="cls-2" x="40" width="4" height="4"/><rect class="cls-2" x="48" width="4" height="4"/><rect class="cls-2" x="52" width="4" height="4"/><rect class="cls-2" x="56" width="4" height="4"/><rect class="cls-2" x="60" width="4" height="4"/><rect class="cls-2" x="60" y="4" width="4" height="4"/><rect class="cls-2" x="60" y="8" width="4" height="4"/><rect class="cls-2" x="60" y="12" width="4" height="4"/><rect class="cls-2" x="60" y="16" width="4" height="4"/><rect class="cls-2" x="60" y="20" width="4" height="4"/><rect class="cls-2" x="56" y="20" width="4" height="4"/><rect class="cls-2" x="56" y="24" width="4" height="4"/><rect class="cls-2" x="52" y="24" width="4" height="4"/><rect class="cls-2" x="52" y="28" width="4" height="4"/><rect class="cls-2" x="48" y="28" width="4" height="4"/><rect class="cls-2" x="48" y="32" width="4" height="4"/><rect class="cls-2" x="44" y="32" width="4" height="4"/><rect class="cls-2" x="44" y="36" width="4" height="4"/><rect class="cls-2" x="40" y="36" width="4" height="4"/><rect class="cls-2" x="40" y="40" width="4" height="4"/><rect class="cls-2" x="36" y="40" width="4" height="4"/><rect class="cls-2" x="36" y="44" width="4" height="4"/><rect class="cls-2" x="36" y="48" width="4" height="4"/><rect class="cls-2" x="36" y="52" width="4" height="4"/><rect class="cls-2" x="36" y="56" width="4" height="4"/><rect class="cls-2" x="44" width="4" height="4"/></svg>