<svg id="图层_1" data-name="图层 1" xmlns="http://www.w3.org/2000/svg" viewBox="0 0 64 64"><defs><style>.cls-1{fill:#fff;}.cls-2{fill:#262626;}</style></defs><rect class="cls-1" y="16" width="4" height="4"/><rect class="cls-1" y="20" width="4" height="4"/><rect class="cls-1" y="24" width="4" height="4"/><rect class="cls-1" y="28" width="4" height="4"/><rect class="cls-1" y="32" width="4" height="4"/><rect class="cls-1" y="36" width="4" height="4"/><rect class="cls-1" y="40" width="4" height="4"/><rect class="cls-1" y="44" width="4" height="4"/><rect class="cls-1" y="48" width="4" height="4"/><rect class="cls-1" x="4" y="12" width="4" height="4"/><rect class="cls-1" x="4" y="16" width="4" height="4"/><rect class="cls-1" x="4" y="20" width="4" height="4"/><rect class="cls-1" x="4" y="24" width="4" height="4"/><rect class="cls-1" x="4" y="28" width="4" height="4"/><rect class="cls-1" x="4" y="32" width="4" height="4"/><rect class="cls-1" x="4" y="36" width="4" height="4"/><rect class="cls-1" x="4" y="40" width="4" height="4"/><rect class="cls-1" x="4" y="44" width="4" height="4"/><rect class="cls-1" x="4" y="48" width="4" height="4"/><rect class="cls-1" x="4" y="52" width="4" height="4"/><rect class="cls-1" x="8" y="8" width="4" height="4"/><rect class="cls-1" x="8" y="12" width="4" height="4"/><rect class="cls-1" x="8" y="16" width="4" height="4"/><rect class="cls-1" x="8" y="20" width="4" height="4"/><rect class="cls-1" x="8" y="24" width="4" height="4"/><rect class="cls-1" x="8" y="28" width="4" height="4"/><rect class="cls-1" x="8" y="32" width="4" height="4"/><rect class="cls-1" x="8" y="36" width="4" height="4"/><rect class="cls-1" x="8" y="40" width="4" height="4"/><rect class="cls-1" x="8" y="44" width="4" height="4"/><rect class="cls-1" x="8" y="48" width="4" height="4"/><rect class="cls-1" x="8" y="52" width="4" height="4"/><rect class="cls-1" x="8" y="56" width="4" height="4"/><rect class="cls-1" x="12" y="4" width="4" height="4"/><rect class="cls-1" x="12" y="8" width="4" height="4"/><rect class="cls-1" x="12" y="12" width="4" height="4"/><rect class="cls-1" x="12" y="16" width="4" height="4"/><rect class="cls-1" x="12" y="20" width="4" height="4"/><rect class="cls-1" x="12" y="24" width="4" height="4"/><rect class="cls-1" x="12" y="28" width="4" height="4"/><rect class="cls-1" x="12" y="32" width="4" height="4"/><rect class="cls-1" x="12" y="36" width="4" height="4"/><rect class="cls-1" x="12" y="40" width="4" height="4"/><rect class="cls-1" x="12" y="44" width="4" height="4"/><rect class="cls-1" x="12" y="48" width="4" height="4"/><rect class="cls-1" x="12" y="52" width="4" height="4"/><rect class="cls-1" x="12" y="56" width="4" height="4"/><rect class="cls-1" x="12" y="60" width="4" height="4"/><rect class="cls-1" x="16" width="4" height="4"/><rect class="cls-1" x="16" y="4" width="4" height="4"/><rect class="cls-1" x="16" y="8" width="4" height="4"/><rect class="cls-1" x="16" y="12" width="4" height="4"/><rect class="cls-1" x="16" y="16" width="4" height="4"/><rect class="cls-1" x="16" y="20" width="4" height="4"/><rect class="cls-1" x="16" y="24" width="4" height="4"/><rect class="cls-1" x="16" y="28" width="4" height="4"/><rect class="cls-1" x="16" y="32" width="4" height="4"/><rect class="cls-1" x="16" y="36" width="4" height="4"/><rect class="cls-1" x="16" y="40" width="4" height="4"/><rect class="cls-1" x="16" y="44" width="4" height="4"/><rect class="cls-1" x="16" y="48" width="4" height="4"/><rect class="cls-1" x="16" y="52" width="4" height="4"/><rect class="cls-1" x="16" y="56" width="4" height="4"/><rect class="cls-1" x="16" y="60" width="4" height="4"/><rect class="cls-1" x="20" width="4" height="4"/><rect class="cls-1" x="20" y="4" width="4" height="4"/><rect class="cls-1" x="20" y="8" width="4" height="4"/><rect class="cls-1" x="20" y="12" width="4" height="4"/><rect class="cls-1" x="20" y="16" width="4" height="4"/><rect class="cls-1" x="20" y="20" width="4" height="4"/><rect class="cls-1" x="20" y="24" width="4" height="4"/><rect class="cls-1" x="20" y="28" width="4" height="4"/><rect class="cls-1" x="20" y="32" width="4" height="4"/><rect class="cls-1" x="20" y="36" width="4" height="4"/><rect class="cls-1" x="20" y="40" width="4" height="4"/><rect class="cls-1" x="20" y="44" width="4" height="4"/><rect class="cls-1" x="20" y="48" width="4" height="4"/><rect class="cls-1" x="20" y="52" width="4" height="4"/><rect class="cls-1" x="20" y="56" width="4" height="4"/><rect class="cls-1" x="20" y="60" width="4" height="4"/><rect class="cls-1" x="24" width="4" height="4"/><rect class="cls-1" x="24" y="4" width="4" height="4"/><rect class="cls-1" x="24" y="8" width="4" height="4"/><rect class="cls-1" x="24" y="12" width="4" height="4"/><rect class="cls-1" x="24" y="16" width="4" height="4"/><rect class="cls-1" x="24" y="20" width="4" height="4"/><rect class="cls-1" x="24" y="24" width="4" height="4"/><rect class="cls-1" x="24" y="28" width="4" height="4"/><rect class="cls-1" x="24" y="32" width="4" height="4"/><rect class="cls-1" x="24" y="36" width="4" height="4"/><rect class="cls-1" x="24" y="40" width="4" height="4"/><rect class="cls-1" x="24" y="44" width="4" height="4"/><rect class="cls-1" x="24" y="48" width="4" height="4"/><rect class="cls-1" x="24" y="52" width="4" height="4"/><rect class="cls-1" x="24" y="56" width="4" height="4"/><rect class="cls-1" x="24" y="60" width="4" height="4"/><rect class="cls-1" x="28" width="4" height="4"/><rect class="cls-1" x="28" y="4" width="4" height="4"/><rect class="cls-1" x="28" y="8" width="4" height="4"/><rect class="cls-1" x="28" y="12" width="4" height="4"/><rect class="cls-1" x="28" y="16" width="4" height="4"/><rect class="cls-1" x="28" y="20" width="4" height="4"/><rect class="cls-1" x="28" y="24" width="4" height="4"/><rect class="cls-1" x="28" y="28" width="4" height="4"/><rect class="cls-1" x="28" y="32" width="4" height="4"/><rect class="cls-1" x="28" y="36" width="4" height="4"/><rect class="cls-1" x="28" y="40" width="4" height="4"/><rect class="cls-1" x="28" y="44" width="4" height="4"/><rect class="cls-1" x="28" y="48" width="4" height="4"/><rect class="cls-1" x="28" y="52" width="4" height="4"/><rect class="cls-1" x="28" y="56" width="4" height="4"/><rect class="cls-1" x="28" y="60" width="4" height="4"/><rect class="cls-1" x="32" width="4" height="4"/><rect class="cls-1" x="32" y="4" width="4" height="4"/><rect class="cls-1" x="32" y="8" width="4" height="4"/><rect class="cls-1" x="32" y="12" width="4" height="4"/><rect class="cls-1" x="32" y="16" width="4" height="4"/><rect class="cls-1" x="32" y="20" width="4" height="4"/><rect class="cls-1" x="32" y="24" width="4" height="4"/><rect class="cls-1" x="32" y="28" width="4" height="4"/><rect class="cls-1" x="32" y="32" width="4" height="4"/><rect class="cls-1" x="32" y="36" width="4" height="4"/><rect class="cls-1" x="32" y="40" width="4" height="4"/><rect class="cls-1" x="32" y="44" width="4" height="4"/><rect class="cls-1" x="32" y="48" width="4" height="4"/><rect class="cls-1" x="32" y="52" width="4" height="4"/><rect class="cls-1" x="32" y="56" width="4" height="4"/><rect class="cls-1" x="32" y="60" width="4" height="4"/><rect class="cls-1" x="36" width="4" height="4"/><rect class="cls-1" x="36" y="4" width="4" height="4"/><rect class="cls-1" x="36" y="8" width="4" height="4"/><rect class="cls-1" x="36" y="12" width="4" height="4"/><rect class="cls-1" x="36" y="16" width="4" height="4"/><rect class="cls-1" x="36" y="20" width="4" height="4"/><rect class="cls-1" x="36" y="24" width="4" height="4"/><rect class="cls-1" x="36" y="28" width="4" height="4"/><rect class="cls-1" x="36" y="32" width="4" height="4"/><rect class="cls-1" x="36" y="36" width="4" height="4"/><rect class="cls-1" x="36" y="40" width="4" height="4"/><rect class="cls-1" x="36" y="44" width="4" height="4"/><rect class="cls-1" x="36" y="48" width="4" height="4"/><rect class="cls-1" x="36" y="52" width="4" height="4"/><rect class="cls-1" x="36" y="56" width="4" height="4"/><rect class="cls-1" x="36" y="60" width="4" height="4"/><rect class="cls-1" x="40" width="4" height="4"/><rect class="cls-1" x="40" y="4" width="4" height="4"/><rect class="cls-1" x="40" y="8" width="4" height="4"/><rect class="cls-1" x="40" y="12" width="4" height="4"/><rect class="cls-1" x="40" y="16" width="4" height="4"/><rect class="cls-1" x="40" y="20" width="4" height="4"/><rect class="cls-1" x="40" y="24" width="4" height="4"/><rect class="cls-1" x="40" y="28" width="4" height="4"/><rect class="cls-1" x="40" y="32" width="4" height="4"/><rect class="cls-1" x="40" y="36" width="4" height="4"/><rect class="cls-1" x="40" y="40" width="4" height="4"/><rect class="cls-1" x="40" y="44" width="4" height="4"/><rect class="cls-1" x="40" y="48" width="4" height="4"/><rect class="cls-1" x="40" y="52" width="4" height="4"/><rect class="cls-1" x="40" y="56" width="4" height="4"/><rect class="cls-1" x="40" y="60" width="4" height="4"/><rect class="cls-1" x="44" width="4" height="4"/><rect class="cls-1" x="44" y="4" width="4" height="4"/><rect class="cls-1" x="44" y="8" width="4" height="4"/><rect class="cls-1" x="44" y="12" width="4" height="4"/><rect class="cls-1" x="44" y="16" width="4" height="4"/><rect class="cls-1" x="44" y="20" width="4" height="4"/><rect class="cls-1" x="44" y="24" width="4" height="4"/><rect class="cls-1" x="44" y="28" width="4" height="4"/><rect class="cls-1" x="44" y="32" width="4" height="4"/><rect class="cls-1" x="44" y="36" width="4" height="4"/><rect class="cls-1" x="44" y="40" width="4" height="4"/><rect class="cls-1" x="44" y="44" width="4" height="4"/><rect class="cls-1" x="44" y="48" width="4" height="4"/><rect class="cls-1" x="44" y="52" width="4" height="4"/><rect class="cls-1" x="44" y="56" width="4" height="4"/><rect class="cls-1" x="44" y="60" width="4" height="4"/><rect class="cls-1" x="48" y="4" width="4" height="4"/><rect class="cls-1" x="48" y="8" width="4" height="4"/><rect class="cls-1" x="48" y="12" width="4" height="4"/><rect class="cls-1" x="48" y="16" width="4" height="4"/><rect class="cls-1" x="48" y="20" width="4" height="4"/><rect class="cls-1" x="48" y="24" width="4" height="4"/><rect class="cls-1" x="48" y="28" width="4" height="4"/><rect class="cls-1" x="48" y="32" width="4" height="4"/><rect class="cls-1" x="48" y="36" width="4" height="4"/><rect class="cls-1" x="48" y="40" width="4" height="4"/><rect class="cls-1" x="48" y="44" width="4" height="4"/><rect class="cls-1" x="48" y="48" width="4" height="4"/><rect class="cls-1" x="48" y="52" width="4" height="4"/><rect class="cls-1" x="48" y="56" width="4" height="4"/><rect class="cls-1" x="48" y="60" width="4" height="4"/><rect class="cls-1" x="52" y="8" width="4" height="4"/><rect class="cls-1" x="52" y="12" width="4" height="4"/><rect class="cls-1" x="52" y="16" width="4" height="4"/><rect class="cls-1" x="52" y="20" width="4" height="4"/><rect class="cls-1" x="52" y="24" width="4" height="4"/><rect class="cls-1" x="52" y="28" width="4" height="4"/><rect class="cls-1" x="52" y="32" width="4" height="4"/><rect class="cls-1" x="52" y="36" width="4" height="4"/><rect class="cls-1" x="52" y="40" width="4" height="4"/><rect class="cls-1" x="52" y="44" width="4" height="4"/><rect class="cls-1" x="52" y="48" width="4" height="4"/><rect class="cls-1" x="52" y="52" width="4" height="4"/><rect class="cls-1" x="52" y="56" width="4" height="4"/><rect class="cls-1" x="56" y="12" width="4" height="4"/><rect class="cls-1" x="56" y="16" width="4" height="4"/><rect class="cls-1" x="56" y="20" width="4" height="4"/><rect class="cls-1" x="56" y="24" width="4" height="4"/><rect class="cls-1" x="56" y="28" width="4" height="4"/><rect class="cls-1" x="56" y="32" width="4" height="4"/><rect class="cls-1" x="56" y="36" width="4" height="4"/><rect class="cls-1" x="56" y="40" width="4" height="4"/><rect class="cls-1" x="56" y="44" width="4" height="4"/><rect class="cls-1" x="56" y="48" width="4" height="4"/><rect class="cls-1" x="56" y="52" width="4" height="4"/><rect class="cls-1" x="60" y="16" width="4" height="4"/><rect class="cls-1" x="60" y="20" width="4" height="4"/><rect class="cls-1" x="60" y="24" width="4" height="4"/><rect class="cls-1" x="60" y="28" width="4" height="4"/><rect class="cls-1" x="60" y="32" width="4" height="4"/><rect class="cls-1" x="60" y="36" width="4" height="4"/><rect class="cls-1" x="60" y="40" width="4" height="4"/><rect class="cls-1" x="60" y="44" width="4" height="4"/><rect class="cls-1" x="60" y="48" width="4" height="4"/><rect class="cls-2" x="12" y="4" width="4" height="4"/><rect class="cls-2" x="8" y="8" width="4" height="4"/><rect class="cls-2" x="12" y="8" width="4" height="4"/><rect class="cls-2" x="12" y="8" width="4" height="4"/><rect class="cls-2" x="16" y="8" width="4" height="4"/><rect class="cls-2" x="8" y="12" width="4" height="4"/><rect class="cls-2" x="4" y="12" width="4" height="4"/><rect class="cls-2" x="16" y="12" width="4" height="4"/><rect class="cls-2" x="8" y="20" width="4" height="4"/><rect class="cls-2" x="4" y="20" width="4" height="4"/><rect class="cls-2" x="20" y="12" width="4" height="4"/><rect class="cls-2" x="20" y="20" width="4" height="4"/><rect class="cls-2" x="4" y="16" width="4" height="4"/><rect class="cls-2" y="16" width="4" height="4"/><rect class="cls-2" y="24" width="4" height="4"/><rect class="cls-2" y="28" width="4" height="4"/><rect class="cls-2" y="32" width="4" height="4"/><rect class="cls-2" y="36" width="4" height="4"/><rect class="cls-2" y="40" width="4" height="4"/><rect class="cls-2" y="44" width="4" height="4"/><rect class="cls-2" y="48" width="4" height="4"/><rect class="cls-2" x="4" y="48" width="4" height="4"/><rect class="cls-2" x="4" y="52" width="4" height="4"/><rect class="cls-2" x="8" y="52" width="4" height="4"/><rect class="cls-2" x="8" y="56" width="4" height="4"/><rect class="cls-2" x="12" y="56" width="4" height="4"/><rect class="cls-2" x="12" y="60" width="4" height="4"/><rect class="cls-2" x="16" y="60" width="4" height="4"/><rect class="cls-2" x="20" y="60" width="4" height="4"/><rect class="cls-2" x="24" y="60" width="4" height="4"/><rect class="cls-2" x="28" y="60" width="4" height="4"/><rect class="cls-2" x="52" y="56" width="4" height="4" transform="translate(108 116) rotate(-180)"/><rect class="cls-2" x="48" y="56" width="4" height="4" transform="translate(100 116) rotate(-180)"/><rect class="cls-2" x="48" y="60" width="4" height="4" transform="translate(100 124) rotate(-180)"/><rect class="cls-2" x="44" y="60" width="4" height="4" transform="translate(92 124) rotate(-180)"/><rect class="cls-2" x="40" y="60" width="4" height="4" transform="translate(84 124) rotate(-180)"/><rect class="cls-2" x="36" y="60" width="4" height="4" transform="translate(76 124) rotate(-180)"/><rect class="cls-2" x="32" y="60" width="4" height="4" transform="translate(68 124) rotate(-180)"/><rect class="cls-2" x="60" y="24" width="4" height="4" transform="translate(124 52) rotate(-180)"/><rect class="cls-2" x="60" y="28" width="4" height="4" transform="translate(124 60) rotate(-180)"/><rect class="cls-2" x="60" y="32" width="4" height="4" transform="translate(124 68) rotate(-180)"/><rect class="cls-2" x="60" y="36" width="4" height="4" transform="translate(124 76) rotate(-180)"/><rect class="cls-2" x="60" y="40" width="4" height="4" transform="translate(124 84) rotate(-180)"/><rect class="cls-2" x="60" y="44" width="4" height="4" transform="translate(124 92) rotate(-180)"/><rect class="cls-2" x="60" y="48" width="4" height="4" transform="translate(124 100) rotate(-180)"/><rect class="cls-2" x="56" y="48" width="4" height="4" transform="translate(116 100) rotate(-180)"/><rect class="cls-2" x="56" y="52" width="4" height="4" transform="translate(116 108) rotate(-180)"/><rect class="cls-2" x="52" y="52" width="4" height="4" transform="translate(108 108) rotate(-180)"/><rect class="cls-2" x="24" y="16" width="4" height="4"/><rect class="cls-2" x="20" y="16" width="4" height="4"/><rect class="cls-2" x="16" y="20" width="4" height="4"/><rect class="cls-2" x="8" y="24" width="4" height="4"/><rect class="cls-2" x="16" y="24" width="4" height="4"/><rect class="cls-2" x="12" y="24" width="4" height="4"/><rect class="cls-2" x="12" y="28" width="4" height="4"/><rect class="cls-2" x="16" y="40" width="4" height="4"/><rect class="cls-2" x="16" y="44" width="4" height="4"/><rect class="cls-2" x="20" y="44" width="4" height="4"/><rect class="cls-2" x="20" y="48" width="4" height="4"/><rect class="cls-2" x="24" y="48" width="4" height="4"/><rect class="cls-2" x="28" y="48" width="4" height="4"/><rect class="cls-2" x="24" y="44" width="4" height="4"/><rect class="cls-2" x="28" y="44" width="4" height="4"/><rect class="cls-2" x="44" y="40" width="4" height="4" transform="translate(92 84) rotate(-180)"/><rect class="cls-2" x="40" y="36" width="4" height="4" transform="translate(84 76) rotate(-180)"/><rect class="cls-2" x="36" y="36" width="4" height="4" transform="translate(76 76) rotate(-180)"/><rect class="cls-2" x="32" y="36" width="4" height="4" transform="translate(68 76) rotate(-180)"/><rect class="cls-2" x="28" y="36" width="4" height="4" transform="translate(60 76) rotate(-180)"/><rect class="cls-2" x="24" y="36" width="4" height="4" transform="translate(52 76) rotate(-180)"/><rect class="cls-2" x="20" y="36" width="4" height="4" transform="translate(44 76) rotate(-180)"/><rect class="cls-2" x="36" width="4" height="4" transform="translate(76 4) rotate(-180)"/><rect class="cls-2" x="32" width="4" height="4" transform="translate(68 4) rotate(-180)"/><rect class="cls-2" x="28" width="4" height="4" transform="translate(60 4) rotate(-180)"/><rect class="cls-2" x="24" width="4" height="4" transform="translate(52 4) rotate(-180)"/><rect class="cls-2" x="16" width="4" height="4" transform="translate(36 4) rotate(-180)"/><rect class="cls-2" x="20" width="4" height="4" transform="translate(44 4) rotate(-180)"/><rect class="cls-2" x="40" width="4" height="4" transform="translate(84 4) rotate(-180)"/><rect class="cls-2" x="44" width="4" height="4" transform="translate(92 4) rotate(-180)"/><rect class="cls-2" x="44" y="44" width="4" height="4" transform="translate(92 92) rotate(-180)"/><rect class="cls-2" x="40" y="44" width="4" height="4" transform="translate(84 92) rotate(-180)"/><rect class="cls-2" x="40" y="48" width="4" height="4" transform="translate(84 100) rotate(-180)"/><rect class="cls-2" x="36" y="48" width="4" height="4" transform="translate(76 100) rotate(-180)"/><rect class="cls-2" x="32" y="48" width="4" height="4" transform="translate(68 100) rotate(-180)"/><rect class="cls-2" x="36" y="44" width="4" height="4" transform="translate(76 92) rotate(-180)"/><rect class="cls-2" x="32" y="44" width="4" height="4" transform="translate(68 92) rotate(-180)"/><rect class="cls-2" x="48" y="4" width="4" height="4"/><rect class="cls-2" x="44" y="8" width="4" height="4"/><rect class="cls-2" x="48" y="8" width="4" height="4"/><rect class="cls-2" x="48" y="8" width="4" height="4"/><rect class="cls-2" x="52" y="8" width="4" height="4"/><rect class="cls-2" x="44" y="12" width="4" height="4"/><rect class="cls-2" x="40" y="12" width="4" height="4"/><rect class="cls-2" x="52" y="12" width="4" height="4"/><rect class="cls-2" x="44" y="20" width="4" height="4"/><rect class="cls-2" x="40" y="20" width="4" height="4"/><rect class="cls-2" x="56" y="12" width="4" height="4"/><rect class="cls-2" x="56" y="20" width="4" height="4"/><rect class="cls-2" x="40" y="16" width="4" height="4"/><rect class="cls-2" x="36" y="16" width="4" height="4"/><rect class="cls-2" x="60" y="16" width="4" height="4"/><rect class="cls-2" x="56" y="16" width="4" height="4"/><rect class="cls-2" x="52" y="20" width="4" height="4"/><rect class="cls-2" x="44" y="24" width="4" height="4"/><rect class="cls-2" x="52" y="24" width="4" height="4"/><rect class="cls-2" x="48" y="24" width="4" height="4"/><rect class="cls-2" x="48" y="28" width="4" height="4"/></svg>