<svg id="图层_1" data-name="图层 1" xmlns="http://www.w3.org/2000/svg" viewBox="0 0 64 64"><defs><style>.cls-1{fill:#262626;}.cls-2{fill:#fff;}</style></defs><rect class="cls-1" x="8" y="44" width="4" height="4"/><rect class="cls-1" x="12" y="44" width="4" height="4"/><rect class="cls-1" x="16" y="44" width="4" height="4"/><rect class="cls-1" x="8" y="52" width="4" height="4"/><rect class="cls-1" x="12" y="52" width="4" height="4"/><rect class="cls-1" x="16" y="52" width="4" height="4"/><rect class="cls-2" x="12" y="48" width="4" height="4"/><rect class="cls-2" y="48" width="4" height="4"/><rect class="cls-2" y="44" width="4" height="4"/><rect class="cls-2" y="40" width="4" height="4"/><rect class="cls-2" y="36" width="4" height="4"/><rect class="cls-2" y="32" width="4" height="4"/><rect class="cls-2" x="8" y="32" width="4" height="4"/><rect class="cls-2" x="4" y="28" width="4" height="4"/><rect class="cls-2" x="56" y="28" width="4" height="4"/><rect class="cls-2" x="12" y="32" width="4" height="4"/><rect class="cls-2" x="16" y="28" width="4" height="4"/><rect class="cls-2" x="20" y="24" width="4" height="4"/><rect class="cls-2" x="20" y="20" width="4" height="4"/><rect class="cls-2" x="20" y="16" width="4" height="4"/><rect class="cls-2" x="20" y="8" width="4" height="4"/><rect class="cls-2" x="24" y="4" width="4" height="4"/><rect class="cls-2" x="28" y="8" width="4" height="4"/><rect class="cls-2" x="32" y="8" width="4" height="4"/><rect class="cls-2" x="28" width="4" height="4"/><rect class="cls-2" x="24" y="12" width="4" height="4"/><rect class="cls-2" x="8" y="36" width="4" height="4"/><rect class="cls-2" y="52" width="4" height="4"/><rect class="cls-2" y="56" width="4" height="4"/><rect class="cls-2" x="4" y="60" width="4" height="4"/><rect class="cls-2" x="8" y="60" width="4" height="4"/><rect class="cls-2" x="12" y="60" width="4" height="4"/><rect class="cls-2" x="16" y="60" width="4" height="4"/><rect class="cls-2" x="20" y="60" width="4" height="4"/><rect class="cls-2" x="24" y="56" width="4" height="4"/><rect class="cls-2" x="24" y="52" width="4" height="4"/><rect class="cls-2" x="24" y="48" width="4" height="4"/><rect class="cls-2" x="24" y="44" width="4" height="4"/><rect class="cls-2" x="24" y="40" width="4" height="4"/><rect class="cls-2" x="36" y="56" width="4" height="4"/><rect class="cls-2" x="36" y="52" width="4" height="4"/><rect class="cls-2" x="36" y="48" width="4" height="4"/><rect class="cls-2" x="36" y="44" width="4" height="4"/><rect class="cls-2" x="36" y="40" width="4" height="4"/><rect class="cls-2" x="28" y="36" width="4" height="4"/><rect class="cls-2" x="32" y="36" width="4" height="4"/><rect class="cls-1" x="12" y="56" width="4" height="4"/><rect class="cls-1" x="16" y="56" width="4" height="4"/><rect class="cls-1" x="20" y="56" width="4" height="4"/><rect class="cls-1" x="8" y="56" width="4" height="4"/><rect class="cls-1" x="4" y="56" width="4" height="4"/><rect class="cls-1" x="4" y="52" width="4" height="4"/><rect class="cls-1" x="4" y="48" width="4" height="4"/><rect class="cls-1" x="8" y="48" width="4" height="4"/><rect class="cls-1" x="16" y="48" width="4" height="4"/><rect class="cls-1" x="4" y="44" width="4" height="4"/><rect class="cls-1" x="4" y="40" width="4" height="4"/><rect class="cls-1" x="4" y="36" width="4" height="4"/><rect class="cls-1" x="12" y="36" width="4" height="4"/><rect class="cls-1" x="12" y="40" width="4" height="4"/><rect class="cls-1" x="16" y="40" width="4" height="4"/><rect class="cls-1" x="20" y="40" width="4" height="4"/><rect class="cls-1" x="20" y="44" width="4" height="4"/><rect class="cls-1" x="20" y="48" width="4" height="4"/><rect class="cls-1" x="20" y="52" width="4" height="4"/><rect class="cls-1" x="8" y="40" width="4" height="4"/><rect class="cls-1" x="16" y="36" width="4" height="4"/><rect class="cls-1" x="16" y="32" width="4" height="4"/><rect class="cls-1" x="20" y="32" width="4" height="4"/><rect class="cls-1" x="20" y="36" width="4" height="4"/><rect class="cls-1" x="20" y="28" width="4" height="4"/><rect class="cls-1" x="4" y="32" width="4" height="4"/><rect class="cls-2" x="48" y="48" width="4" height="4" transform="translate(100 100) rotate(180)"/><rect class="cls-1" x="48" y="56" width="4" height="4" transform="translate(100 116) rotate(180)"/><rect class="cls-1" x="44" y="56" width="4" height="4" transform="translate(92 116) rotate(180)"/><rect class="cls-1" x="40" y="56" width="4" height="4" transform="translate(84 116) rotate(180)"/><rect class="cls-1" x="52" y="56" width="4" height="4" transform="translate(108 116) rotate(180)"/><rect class="cls-1" x="56" y="56" width="4" height="4" transform="translate(116 116) rotate(180)"/><rect class="cls-1" x="56" y="52" width="4" height="4" transform="translate(116 108) rotate(180)"/><rect class="cls-1" x="56" y="48" width="4" height="4" transform="translate(116 100) rotate(180)"/><rect class="cls-1" x="56" y="44" width="4" height="4" transform="translate(116 92) rotate(180)"/><rect class="cls-1" x="56" y="40" width="4" height="4" transform="translate(116 84) rotate(180)"/><rect class="cls-1" x="56" y="36" width="4" height="4" transform="translate(116 76) rotate(180)"/><rect class="cls-1" x="48" y="36" width="4" height="4" transform="translate(100 76) rotate(180)"/><rect class="cls-1" x="48" y="40" width="4" height="4" transform="translate(100 84) rotate(180)"/><rect class="cls-1" x="44" y="40" width="4" height="4" transform="translate(92 84) rotate(180)"/><rect class="cls-1" x="40" y="40" width="4" height="4" transform="translate(84 84) rotate(180)"/><rect class="cls-1" x="40" y="44" width="4" height="4" transform="translate(84 92) rotate(180)"/><rect class="cls-1" x="40" y="48" width="4" height="4" transform="translate(84 100) rotate(180)"/><rect class="cls-1" x="40" y="52" width="4" height="4" transform="translate(84 108) rotate(180)"/><rect class="cls-1" x="52" y="40" width="4" height="4" transform="translate(108 84) rotate(180)"/><rect class="cls-1" x="48" y="44" width="4" height="4" transform="translate(100 92) rotate(180)"/><rect class="cls-1" x="44" y="44" width="4" height="4" transform="translate(92 92) rotate(180)"/><rect class="cls-1" x="52" y="44" width="4" height="4" transform="translate(108 92) rotate(180)"/><rect class="cls-1" x="48" y="52" width="4" height="4" transform="translate(100 108) rotate(180)"/><rect class="cls-1" x="44" y="52" width="4" height="4" transform="translate(92 108) rotate(180)"/><rect class="cls-1" x="52" y="52" width="4" height="4" transform="translate(108 108) rotate(180)"/><rect class="cls-1" x="44" y="48" width="4" height="4" transform="translate(92 100) rotate(180)"/><rect class="cls-1" x="52" y="48" width="4" height="4" transform="translate(108 100) rotate(180)"/><rect class="cls-1" x="44" y="36" width="4" height="4" transform="translate(92 76) rotate(180)"/><rect class="cls-1" x="44" y="32" width="4" height="4" transform="translate(92 68) rotate(180)"/><rect class="cls-1" x="40" y="32" width="4" height="4" transform="translate(84 68) rotate(180)"/><rect class="cls-1" x="40" y="36" width="4" height="4" transform="translate(84 76) rotate(180)"/><rect class="cls-1" x="40" y="28" width="4" height="4" transform="translate(84 60) rotate(180)"/><rect class="cls-1" x="24" y="36" width="4" height="4" transform="translate(52 76) rotate(180)"/><rect class="cls-1" x="36" y="36" width="4" height="4" transform="translate(76 76) rotate(180)"/><rect class="cls-1" x="24" y="32" width="4" height="4" transform="translate(52 68) rotate(180)"/><rect class="cls-1" x="36" y="32" width="4" height="4" transform="translate(76 68) rotate(180)"/><rect class="cls-1" x="32" y="32" width="4" height="4" transform="translate(68 68) rotate(180)"/><rect class="cls-1" x="28" y="32" width="4" height="4" transform="translate(60 68) rotate(180)"/><rect class="cls-1" x="24" y="28" width="4" height="4" transform="translate(52 60) rotate(180)"/><rect class="cls-1" x="36" y="28" width="4" height="4" transform="translate(76 60) rotate(180)"/><rect class="cls-1" x="32" y="28" width="4" height="4" transform="translate(68 60) rotate(180)"/><rect class="cls-1" x="28" y="28" width="4" height="4" transform="translate(60 60) rotate(180)"/><rect class="cls-1" x="24" y="24" width="4" height="4" transform="translate(52 52) rotate(180)"/><rect class="cls-1" x="36" y="24" width="4" height="4" transform="translate(76 52) rotate(180)"/><rect class="cls-1" x="32" y="24" width="4" height="4" transform="translate(68 52) rotate(180)"/><rect class="cls-1" x="28" y="24" width="4" height="4" transform="translate(60 52) rotate(180)"/><rect class="cls-1" x="24" y="20" width="4" height="4" transform="translate(52 44) rotate(180)"/><rect class="cls-1" x="36" y="20" width="4" height="4" transform="translate(76 44) rotate(180)"/><rect class="cls-1" x="32" y="20" width="4" height="4" transform="translate(68 44) rotate(180)"/><rect class="cls-1" x="28" y="20" width="4" height="4" transform="translate(60 44) rotate(180)"/><rect class="cls-1" x="24" y="16" width="4" height="4" transform="translate(52 36) rotate(180)"/><rect class="cls-1" x="36" y="16" width="4" height="4" transform="translate(76 36) rotate(180)"/><rect class="cls-1" x="32" y="16" width="4" height="4" transform="translate(68 36) rotate(180)"/><rect class="cls-1" x="28" y="16" width="4" height="4" transform="translate(60 36) rotate(180)"/><rect class="cls-1" x="32" y="12" width="4" height="4" transform="translate(68 28) rotate(180)"/><rect class="cls-1" x="28" y="12" width="4" height="4" transform="translate(60 28) rotate(180)"/><rect class="cls-1" x="32" y="4" width="4" height="4" transform="translate(68 12) rotate(180)"/><rect class="cls-1" x="28" y="4" width="4" height="4" transform="translate(60 12) rotate(180)"/><rect class="cls-1" x="24" y="8" width="4" height="4" transform="translate(52 20) rotate(180)"/><rect class="cls-1" x="36" y="8" width="4" height="4" transform="translate(76 20) rotate(180)"/><rect class="cls-1" x="56" y="32" width="4" height="4" transform="translate(116 68) rotate(180)"/><rect class="cls-2" x="60" y="48" width="4" height="4" transform="translate(124 100) rotate(180)"/><rect class="cls-2" x="60" y="44" width="4" height="4" transform="translate(124 92) rotate(180)"/><rect class="cls-2" x="60" y="40" width="4" height="4" transform="translate(124 84) rotate(180)"/><rect class="cls-2" x="60" y="36" width="4" height="4" transform="translate(124 76) rotate(180)"/><rect class="cls-2" x="60" y="32" width="4" height="4" transform="translate(124 68) rotate(180)"/><rect class="cls-2" x="52" y="32" width="4" height="4" transform="translate(108 68) rotate(180)"/><rect class="cls-2" x="48" y="32" width="4" height="4" transform="translate(100 68) rotate(180)"/><rect class="cls-2" x="44" y="28" width="4" height="4" transform="translate(92 60) rotate(180)"/><rect class="cls-2" x="40" y="24" width="4" height="4" transform="translate(84 52) rotate(180)"/><rect class="cls-2" x="40" y="20" width="4" height="4" transform="translate(84 44) rotate(180)"/><rect class="cls-2" x="40" y="16" width="4" height="4" transform="translate(84 36) rotate(180)"/><rect class="cls-2" x="40" y="8" width="4" height="4" transform="translate(84 20) rotate(180)"/><rect class="cls-2" x="36" y="4" width="4" height="4" transform="translate(76 12) rotate(180)"/><rect class="cls-2" x="32" width="4" height="4" transform="translate(68 4) rotate(180)"/><rect class="cls-2" x="36" y="12" width="4" height="4" transform="translate(76 28) rotate(180)"/><rect class="cls-2" x="52" y="36" width="4" height="4" transform="translate(108 76) rotate(180)"/><rect class="cls-2" x="60" y="52" width="4" height="4" transform="translate(124 108) rotate(180)"/><rect class="cls-2" x="60" y="56" width="4" height="4" transform="translate(124 116) rotate(180)"/><rect class="cls-2" x="56" y="60" width="4" height="4" transform="translate(116 124) rotate(180)"/><rect class="cls-2" x="52" y="60" width="4" height="4" transform="translate(108 124) rotate(180)"/><rect class="cls-2" x="48" y="60" width="4" height="4" transform="translate(100 124) rotate(180)"/><rect class="cls-2" x="44" y="60" width="4" height="4" transform="translate(92 124) rotate(180)"/><rect class="cls-2" x="40" y="60" width="4" height="4" transform="translate(84 124) rotate(180)"/></svg>